<svg width="32" height="32" viewBox="0 0 32 32" fill="none" xmlns="http://www.w3.org/2000/svg">
  <rect width="32" height="32" rx="16" fill="#F3F7FE" />
  <path
    d="M11.2311 7.5C9.97297 9.6 8.78378 11.775 7.66216 14.025L7.5 14.325C8.76351 14.325 9.79054 14.325 11.0541 14.325C11.6757 12.675 12.2568 11.175 12.8784 9.6L11.2311 7.5Z"
    fill="#4F8BFF" />
  <path
    d="M19.9595 23.625C21.1622 21.6 22.5135 19.725 23.9459 17.925L24.1284 17.625C22.7838 17.625 21.6959 17.625 20.3514 17.625C19.75 19.2 19.1284 20.85 18.527 22.425L19.9595 23.625Z"
    fill="#4F8BFF" />
  <path
    d="M7.5 17.625C11.8108 17.625 15.8919 17.625 20.2027 17.625C20.8041 16.05 21.4054 14.4 22.0068 12.825L22.1622 12.525C17.8514 12.525 13.7905 12.525 9.47973 12.525C8.87838 14.1 8.27703 15.75 7.67568 17.325L7.5 17.625Z"
    fill="#4F8BFF" />
</svg> 