<svg width="128" height="128" viewBox="0 0 128 128" fill="none" xmlns="http://www.w3.org/2000/svg">
  <rect width="128" height="128" rx="64" fill="#F3F7FE" />
  <path
    d="M44.9243 30C39.8919 38.4 35.1351 47.1 30.6486 56.1L30 57.3C35.0541 57.3 39.1622 57.3 44.2162 57.3C46.7027 50.7 49.027 44.7 51.5135 38.4L44.9243 30Z"
    fill="#4F8BFF" />
  <path
    d="M79.8378 94.5C84.6486 86.4 90.0541 78.9 95.7838 71.7L96.5135 70.5C91.1351 70.5 86.7838 70.5 81.4054 70.5C79 76.8 76.5135 83.4 74.1081 89.7L79.8378 94.5Z"
    fill="#4F8BFF" />
  <path
    d="M30 70.5C47.2432 70.5 63.5676 70.5 80.8108 70.5C83.2162 64.2 85.6216 57.6 88.027 51.3L88.6486 50.1C71.4054 50.1 55.1622 50.1 37.9189 50.1C35.5135 56.4 33.1081 63 30.7027 69.3L30 70.5Z"
    fill="#4F8BFF" />
</svg> 